<mxfile host="app.diagrams.net" modified="2023-04-23T03:59:38.832Z" agent="Mozilla/5.0 (Windows NT 10.0; Win64; x64; rv:109.0) Gecko/20100101 Firefox/112.0" etag="py4gLrsENzXTJBgFhz7S" version="21.2.1" type="device">
  <diagram name="Page-1" id="13e1069c-82ec-6db2-03f1-153e76fe0fe0">
    <mxGraphModel dx="1534" dy="956" grid="1" gridSize="10" guides="1" tooltips="1" connect="1" arrows="1" fold="1" page="1" pageScale="1" pageWidth="1100" pageHeight="850" background="none" math="0" shadow="0">
      <root>
        <mxCell id="0" />
        <mxCell id="1" parent="0" />
        <mxCell id="7baba1c4bc27f4b0-2" value=":Enemy" style="shape=umlLifeline;perimeter=lifelinePerimeter;whiteSpace=wrap;html=1;container=1;collapsible=0;recursiveResize=0;outlineConnect=0;rounded=1;shadow=0;comic=0;labelBackgroundColor=none;strokeWidth=1;fontFamily=Helvetica;fontSize=12;align=center;size=40;" parent="1" vertex="1">
          <mxGeometry x="400" y="80" width="100" height="920" as="geometry" />
        </mxCell>
        <mxCell id="7baba1c4bc27f4b0-10" value="" style="html=1;points=[];perimeter=orthogonalPerimeter;rounded=0;shadow=0;comic=0;labelBackgroundColor=none;strokeWidth=1;fontFamily=Helvetica;fontSize=12;align=center;" parent="7baba1c4bc27f4b0-2" vertex="1">
          <mxGeometry x="45" y="100" width="10" height="820" as="geometry" />
        </mxCell>
        <mxCell id="7baba1c4bc27f4b0-3" value=":Action" style="shape=umlLifeline;perimeter=lifelinePerimeter;whiteSpace=wrap;html=1;container=1;collapsible=0;recursiveResize=0;outlineConnect=0;rounded=1;shadow=0;comic=0;labelBackgroundColor=none;strokeWidth=1;fontFamily=Helvetica;fontSize=12;align=center;" parent="1" vertex="1">
          <mxGeometry x="580" y="80" width="100" height="920" as="geometry" />
        </mxCell>
        <mxCell id="7baba1c4bc27f4b0-13" value="" style="html=1;points=[];perimeter=orthogonalPerimeter;rounded=0;shadow=0;comic=0;labelBackgroundColor=none;strokeWidth=1;fontFamily=Helvetica;fontSize=12;align=center;" parent="7baba1c4bc27f4b0-3" vertex="1">
          <mxGeometry x="45" y="140" width="10" height="30" as="geometry" />
        </mxCell>
        <mxCell id="7baba1c4bc27f4b0-8" value=":World" style="shape=umlLifeline;perimeter=lifelinePerimeter;whiteSpace=wrap;html=1;container=1;collapsible=0;recursiveResize=0;outlineConnect=0;rounded=1;shadow=0;comic=0;labelBackgroundColor=none;strokeWidth=1;fontFamily=Helvetica;fontSize=12;align=center;" parent="1" vertex="1">
          <mxGeometry x="100" y="80" width="100" height="920" as="geometry" />
        </mxCell>
        <mxCell id="7baba1c4bc27f4b0-9" value="" style="html=1;points=[];perimeter=orthogonalPerimeter;rounded=0;shadow=0;comic=0;labelBackgroundColor=none;strokeWidth=1;fontFamily=Helvetica;fontSize=12;align=center;" parent="7baba1c4bc27f4b0-8" vertex="1">
          <mxGeometry x="45" y="100" width="10" height="700" as="geometry" />
        </mxCell>
        <mxCell id="7baba1c4bc27f4b0-11" value="&lt;div&gt;playTurn(actions, lastActionMap.get(actor),&lt;/div&gt;&lt;div&gt;&amp;nbsp;map, display)&lt;/div&gt;" style="html=1;verticalAlign=bottom;endArrow=block;entryX=0;entryY=0;labelBackgroundColor=none;fontFamily=Helvetica;fontSize=12;edgeStyle=elbowEdgeStyle;elbow=vertical;" parent="1" source="7baba1c4bc27f4b0-9" target="7baba1c4bc27f4b0-10" edge="1">
          <mxGeometry relative="1" as="geometry">
            <mxPoint x="220" y="190" as="sourcePoint" />
            <mxPoint as="offset" />
          </mxGeometry>
        </mxCell>
        <mxCell id="DH6IuwQM_21PFYgnU8KK-4" value="Loop" style="shape=umlFrame;whiteSpace=wrap;html=1;pointerEvents=0;width=50;height=20;fontFamily=Helvetica;" vertex="1" parent="1">
          <mxGeometry x="316" y="200" width="374" height="160" as="geometry" />
        </mxCell>
        <mxCell id="DH6IuwQM_21PFYgnU8KK-5" value="[for each action]" style="text;html=1;align=center;verticalAlign=middle;resizable=0;points=[];autosize=1;strokeColor=none;fillColor=none;fontFamily=Helvetica;" vertex="1" parent="1">
          <mxGeometry x="310" y="220" width="110" height="30" as="geometry" />
        </mxCell>
        <mxCell id="DH6IuwQM_21PFYgnU8KK-7" value="Opt" style="shape=umlFrame;whiteSpace=wrap;html=1;pointerEvents=0;width=50;height=20;fontFamily=Helvetica;" vertex="1" parent="1">
          <mxGeometry x="326" y="260" width="334" height="90" as="geometry" />
        </mxCell>
        <mxCell id="DH6IuwQM_21PFYgnU8KK-8" value="&lt;div&gt;[action is an&lt;/div&gt;&lt;div&gt;&amp;nbsp;AttackAction]&lt;/div&gt;" style="text;html=1;align=center;verticalAlign=middle;resizable=0;points=[];autosize=1;strokeColor=none;fillColor=none;fontFamily=Helvetica;" vertex="1" parent="1">
          <mxGeometry x="315" y="285" width="100" height="40" as="geometry" />
        </mxCell>
        <mxCell id="DH6IuwQM_21PFYgnU8KK-9" value="getClass()" style="html=1;verticalAlign=bottom;endArrow=block;labelBackgroundColor=none;fontFamily=Helvetica;fontSize=12;rounded=0;edgeStyle=elbowEdgeStyle;elbow=vertical;" edge="1" parent="1" source="7baba1c4bc27f4b0-10" target="7baba1c4bc27f4b0-13">
          <mxGeometry x="0.067" relative="1" as="geometry">
            <mxPoint x="460" y="220" as="sourcePoint" />
            <mxPoint x="610" y="220" as="targetPoint" />
            <mxPoint as="offset" />
            <Array as="points">
              <mxPoint x="560" y="230" />
            </Array>
          </mxGeometry>
        </mxCell>
        <mxCell id="DH6IuwQM_21PFYgnU8KK-10" value="class" style="html=1;verticalAlign=bottom;endArrow=open;dashed=1;endSize=8;labelBackgroundColor=none;fontFamily=Helvetica;fontSize=12;edgeStyle=elbowEdgeStyle;elbow=vertical;" edge="1" parent="1" target="7baba1c4bc27f4b0-10">
          <mxGeometry relative="1" as="geometry">
            <mxPoint x="470" y="250" as="targetPoint" />
            <Array as="points">
              <mxPoint x="545" y="250" />
              <mxPoint x="575" y="250" />
            </Array>
            <mxPoint x="630" y="250" as="sourcePoint" />
          </mxGeometry>
        </mxCell>
        <mxCell id="DH6IuwQM_21PFYgnU8KK-11" value="action" style="html=1;verticalAlign=bottom;endArrow=open;dashed=1;endSize=8;labelBackgroundColor=none;fontFamily=Helvetica;fontSize=12;elbow=vertical;edgeStyle=elbowEdgeStyle;" edge="1" parent="1" source="7baba1c4bc27f4b0-10" target="7baba1c4bc27f4b0-8">
          <mxGeometry x="-0.0006" relative="1" as="geometry">
            <mxPoint x="160" y="370" as="targetPoint" />
            <Array as="points">
              <mxPoint x="400" y="330" />
            </Array>
            <mxPoint x="440" y="330" as="sourcePoint" />
            <mxPoint as="offset" />
          </mxGeometry>
        </mxCell>
        <mxCell id="DH6IuwQM_21PFYgnU8KK-13" value="Opt" style="shape=umlFrame;whiteSpace=wrap;html=1;pointerEvents=0;width=50;height=20;fontFamily=Helvetica;" vertex="1" parent="1">
          <mxGeometry x="321" y="380" width="549" height="200" as="geometry" />
        </mxCell>
        <mxCell id="DH6IuwQM_21PFYgnU8KK-14" value="&lt;div&gt;[enemy does not &lt;br&gt;&lt;/div&gt;&lt;div&gt;have followBehaviour]&lt;/div&gt;" style="text;html=1;align=center;verticalAlign=middle;resizable=0;points=[];autosize=1;strokeColor=none;fillColor=none;fontFamily=Helvetica;" vertex="1" parent="1">
          <mxGeometry x="310" y="405" width="140" height="40" as="geometry" />
        </mxCell>
        <mxCell id="DH6IuwQM_21PFYgnU8KK-16" value="Opt" style="shape=umlFrame;whiteSpace=wrap;html=1;pointerEvents=0;width=50;height=20;fontFamily=Helvetica;" vertex="1" parent="1">
          <mxGeometry x="332" y="450" width="528" height="120" as="geometry" />
        </mxCell>
        <mxCell id="DH6IuwQM_21PFYgnU8KK-17" value="[with a 10% chance]" style="text;html=1;align=center;verticalAlign=middle;resizable=0;points=[];autosize=1;strokeColor=none;fillColor=none;fontFamily=Helvetica;" vertex="1" parent="1">
          <mxGeometry x="326" y="470" width="130" height="30" as="geometry" />
        </mxCell>
        <mxCell id="DH6IuwQM_21PFYgnU8KK-18" value=":DespawnAction" style="shape=umlLifeline;perimeter=lifelinePerimeter;whiteSpace=wrap;html=1;container=1;collapsible=0;recursiveResize=0;outlineConnect=0;rounded=1;shadow=0;comic=0;labelBackgroundColor=none;strokeWidth=1;fontFamily=Helvetica;fontSize=12;align=center;" vertex="1" parent="1">
          <mxGeometry x="740" y="460" width="110" height="550" as="geometry" />
        </mxCell>
        <mxCell id="DH6IuwQM_21PFYgnU8KK-20" value="DespawnAction" style="html=1;verticalAlign=bottom;endArrow=open;dashed=1;endSize=8;labelBackgroundColor=none;fontFamily=Helvetica;fontSize=12;elbow=vertical;" edge="1" parent="1" source="DH6IuwQM_21PFYgnU8KK-18" target="7baba1c4bc27f4b0-9">
          <mxGeometry x="0.0149" relative="1" as="geometry">
            <mxPoint x="151" y="560" as="targetPoint" />
            <mxPoint x="631" y="560" as="sourcePoint" />
            <mxPoint as="offset" />
            <Array as="points">
              <mxPoint x="780" y="540" />
            </Array>
          </mxGeometry>
        </mxCell>
        <mxCell id="DH6IuwQM_21PFYgnU8KK-21" value="&amp;lt;&amp;lt;creates&amp;gt;&amp;gt;" style="html=1;verticalAlign=bottom;endArrow=block;labelBackgroundColor=none;fontFamily=Helvetica;fontSize=12;entryX=0.003;entryY=0.035;entryDx=0;entryDy=0;entryPerimeter=0;rounded=0;edgeStyle=elbowEdgeStyle;exitX=1.078;exitY=0.089;exitDx=0;exitDy=0;exitPerimeter=0;elbow=vertical;" edge="1" parent="1" target="DH6IuwQM_21PFYgnU8KK-18">
          <mxGeometry relative="1" as="geometry">
            <mxPoint x="456" y="479.8" as="sourcePoint" />
            <mxPoint x="625" y="479.8" as="targetPoint" />
            <mxPoint as="offset" />
          </mxGeometry>
        </mxCell>
        <mxCell id="DH6IuwQM_21PFYgnU8KK-24" value="Loop" style="shape=umlFrame;whiteSpace=wrap;html=1;pointerEvents=0;width=50;height=20;fontFamily=Helvetica;" vertex="1" parent="1">
          <mxGeometry x="322" y="600" width="618" height="200" as="geometry" />
        </mxCell>
        <mxCell id="DH6IuwQM_21PFYgnU8KK-25" value="[for each behaviour]" style="text;html=1;align=center;verticalAlign=middle;resizable=0;points=[];autosize=1;strokeColor=none;fillColor=none;fontFamily=Helvetica;" vertex="1" parent="1">
          <mxGeometry x="313" y="620" width="130" height="30" as="geometry" />
        </mxCell>
        <mxCell id="DH6IuwQM_21PFYgnU8KK-26" value=":Behaviour" style="shape=umlLifeline;perimeter=lifelinePerimeter;whiteSpace=wrap;html=1;container=1;collapsible=0;recursiveResize=0;outlineConnect=0;rounded=1;shadow=0;comic=0;labelBackgroundColor=none;strokeWidth=1;fontFamily=Helvetica;fontSize=12;align=center;" vertex="1" parent="1">
          <mxGeometry x="841" y="80" width="100" height="930" as="geometry" />
        </mxCell>
        <mxCell id="DH6IuwQM_21PFYgnU8KK-27" value="" style="html=1;points=[];perimeter=orthogonalPerimeter;rounded=0;shadow=0;comic=0;labelBackgroundColor=none;strokeWidth=1;fontFamily=Helvetica;fontSize=12;align=center;" vertex="1" parent="DH6IuwQM_21PFYgnU8KK-26">
          <mxGeometry x="45" y="570" width="10" height="30" as="geometry" />
        </mxCell>
        <mxCell id="DH6IuwQM_21PFYgnU8KK-28" value="getAction(this, map)" style="html=1;verticalAlign=bottom;endArrow=block;labelBackgroundColor=none;fontFamily=Helvetica;fontSize=12;rounded=0;edgeStyle=elbowEdgeStyle;exitX=1.078;exitY=0.089;exitDx=0;exitDy=0;exitPerimeter=0;elbow=vertical;" edge="1" parent="1" target="DH6IuwQM_21PFYgnU8KK-26">
          <mxGeometry relative="1" as="geometry">
            <mxPoint x="453.5" y="650" as="sourcePoint" />
            <mxPoint x="737.5" y="650.2" as="targetPoint" />
            <mxPoint as="offset" />
          </mxGeometry>
        </mxCell>
        <mxCell id="DH6IuwQM_21PFYgnU8KK-29" value="action" style="html=1;verticalAlign=bottom;endArrow=open;dashed=1;endSize=8;labelBackgroundColor=none;fontFamily=Helvetica;fontSize=12;edgeStyle=elbowEdgeStyle;elbow=vertical;" edge="1" parent="1" source="DH6IuwQM_21PFYgnU8KK-26">
          <mxGeometry relative="1" as="geometry">
            <mxPoint x="456" y="679.55" as="targetPoint" />
            <Array as="points">
              <mxPoint x="546" y="679.55" />
              <mxPoint x="576" y="679.55" />
            </Array>
            <mxPoint x="631" y="679.55" as="sourcePoint" />
          </mxGeometry>
        </mxCell>
        <mxCell id="DH6IuwQM_21PFYgnU8KK-35" value="Opt" style="shape=umlFrame;whiteSpace=wrap;html=1;pointerEvents=0;width=50;height=20;fontFamily=Helvetica;" vertex="1" parent="1">
          <mxGeometry x="327" y="690" width="593" height="100" as="geometry" />
        </mxCell>
        <mxCell id="DH6IuwQM_21PFYgnU8KK-36" value="&lt;div&gt;[if action is &lt;br&gt;&lt;/div&gt;&lt;div&gt;not null]&lt;/div&gt;" style="text;html=1;align=center;verticalAlign=middle;resizable=0;points=[];autosize=1;strokeColor=none;fillColor=none;fontFamily=Helvetica;" vertex="1" parent="1">
          <mxGeometry x="326" y="715" width="80" height="40" as="geometry" />
        </mxCell>
        <mxCell id="DH6IuwQM_21PFYgnU8KK-37" value="action" style="html=1;verticalAlign=bottom;endArrow=open;dashed=1;endSize=8;labelBackgroundColor=none;fontFamily=Helvetica;fontSize=12;elbow=vertical;edgeStyle=elbowEdgeStyle;" edge="1" parent="1" source="7baba1c4bc27f4b0-10">
          <mxGeometry x="-0.0006" relative="1" as="geometry">
            <mxPoint x="155" y="770" as="targetPoint" />
            <Array as="points">
              <mxPoint x="405" y="770" />
            </Array>
            <mxPoint x="440" y="770" as="sourcePoint" />
            <mxPoint as="offset" />
          </mxGeometry>
        </mxCell>
        <mxCell id="DH6IuwQM_21PFYgnU8KK-38" value=":DoNothingAction" style="shape=umlLifeline;perimeter=lifelinePerimeter;whiteSpace=wrap;html=1;container=1;collapsible=0;recursiveResize=0;outlineConnect=0;rounded=1;shadow=0;comic=0;labelBackgroundColor=none;strokeWidth=1;fontFamily=Helvetica;fontSize=12;align=center;" vertex="1" parent="1">
          <mxGeometry x="980" y="820" width="100" height="190" as="geometry" />
        </mxCell>
        <mxCell id="DH6IuwQM_21PFYgnU8KK-39" value="" style="html=1;points=[];perimeter=orthogonalPerimeter;rounded=0;shadow=0;comic=0;labelBackgroundColor=none;strokeWidth=1;fontFamily=Helvetica;fontSize=12;align=center;" vertex="1" parent="DH6IuwQM_21PFYgnU8KK-38">
          <mxGeometry x="45" y="570" width="10" height="30" as="geometry" />
        </mxCell>
        <mxCell id="DH6IuwQM_21PFYgnU8KK-40" value="&amp;lt;&amp;lt;creates&amp;gt;&amp;gt;" style="html=1;verticalAlign=bottom;endArrow=block;labelBackgroundColor=none;fontFamily=Helvetica;fontSize=12;rounded=0;edgeStyle=elbowEdgeStyle;elbow=vertical;" edge="1" parent="1" source="7baba1c4bc27f4b0-10">
          <mxGeometry relative="1" as="geometry">
            <mxPoint x="460" y="840" as="sourcePoint" />
            <mxPoint x="980" y="840" as="targetPoint" />
            <mxPoint as="offset" />
          </mxGeometry>
        </mxCell>
        <mxCell id="DH6IuwQM_21PFYgnU8KK-42" value="DoNothingAction" style="html=1;verticalAlign=bottom;endArrow=open;dashed=1;endSize=8;labelBackgroundColor=none;fontFamily=Helvetica;fontSize=12;elbow=vertical;" edge="1" parent="1" source="DH6IuwQM_21PFYgnU8KK-38">
          <mxGeometry x="0.0152" relative="1" as="geometry">
            <mxPoint x="150" y="880" as="targetPoint" />
            <mxPoint x="770" y="880" as="sourcePoint" />
            <mxPoint as="offset" />
            <Array as="points" />
          </mxGeometry>
        </mxCell>
      </root>
    </mxGraphModel>
  </diagram>
</mxfile>
